<svg width="18" height="19" viewBox="0 0 18 19" fill="none" xmlns="http://www.w3.org/2000/svg">
<path d="M4.94242 9.39389C5.0371 9.56939 5.21713 9.6788 5.41295 9.6788H8.46203V15.6993C8.46203 16.0033 8.70303 16.25 8.99998 16.25C9.29693 16.25 9.53793 16.0033 9.53793 15.6993V9.6788H12.587C12.7835 9.6788 12.9636 9.56939 13.0575 9.39389C13.1529 9.2184 13.1465 9.00398 13.0425 8.83436L9.45544 3.007C9.35646 2.84693 9.18503 2.75 8.99998 2.75C8.81493 2.75 8.6435 2.84693 8.54452 3.007L4.95749 8.83436C4.90297 8.92395 4.875 9.02601 4.875 9.12808C4.875 9.21913 4.89795 9.31092 4.94242 9.39389Z" fill="#25BE22"/>
</svg>
