<svg width="24" height="24" viewBox="0 0 24 24" fill="none" xmlns="http://www.w3.org/2000/svg">
<path fill-rule="evenodd" clip-rule="evenodd" d="M21.51 2.58002C20.9488 2.02336 20.1905 1.71071 19.4 1.71002C18.7152 1.71225 18.0518 1.94867 17.52 2.38002L8.15 10L8 10.15C6.69403 11.4448 6.40431 13.4483 7.29 15.06C6.92663 14.9492 6.5498 14.8886 6.17 14.88C3.96086 14.88 2.17 16.6709 2.17 18.88V21.38C2.17 22.2084 2.84157 22.88 3.67 22.88H6.17C7.55861 22.8724 8.84391 22.1452 9.56554 20.9588C10.2872 19.7724 10.3418 18.2966 9.71 17.06C10.1097 17.195 10.5282 17.2658 10.95 17.27C12.0575 17.2775 13.1212 16.8376 13.9 16.05L14 15.94L21.67 6.57002C22.6381 5.39253 22.5693 3.67621 21.51 2.58002ZM6.21 21.38H3.71V18.88C3.71 17.4993 4.82929 16.38 6.21 16.38C7.59071 16.38 8.71 17.4993 8.71 18.88C8.71 20.2607 7.59071 21.38 6.21 21.38ZM12.88 15L20.55 5.62002C21.0201 5.03111 20.9727 4.18297 20.4399 3.65012C19.907 3.11727 19.0589 3.06987 18.47 3.54002L9.1 11.21C8.05342 12.2538 8.05118 13.9484 9.095 14.995C10.1388 16.0416 11.8334 16.0438 12.88 15Z" fill="black"/>
<path d="M13.2 9.83002L10.2 12.83C9.90754 13.1228 9.90754 13.5972 10.2 13.89C10.4928 14.1825 10.9672 14.1825 11.26 13.89L14.26 10.89C14.4607 10.7031 14.5432 10.4215 14.4754 10.1557C14.4075 9.89 14.2 9.6825 13.9343 9.61464C13.6686 9.54677 13.387 9.62937 13.2 9.83002Z" fill="black"/>
</svg>
