<svg width="24" height="24" viewBox="0 0 24 24" fill="none" xmlns="http://www.w3.org/2000/svg">
<path fill-rule="evenodd" clip-rule="evenodd" d="M16 8.75997C15.9674 10.3933 14.6337 11.7003 13 11.7C11.3858 11.6734 10.0821 10.3741 10.05 8.75997V7.62997C10.0498 6.96436 10.3183 6.32684 10.7946 5.86186C11.2708 5.39688 11.9146 5.1438 12.58 5.15997H13.52C14.1768 5.15731 14.8077 5.41637 15.2731 5.87987C15.7384 6.34338 16 6.97315 16 7.62997V8.75997ZM12.55 6.62997C11.9977 6.62997 11.55 7.07769 11.55 7.62997L11.59 8.75997C11.59 9.56078 12.2392 10.21 13.04 10.21C13.8408 10.21 14.49 9.56078 14.49 8.75997V7.62997C14.49 7.07769 14.0423 6.62997 13.49 6.62997H12.55Z" fill="black"/>
<path fill-rule="evenodd" clip-rule="evenodd" d="M23.48 15.3L23.59 16.86C23.7056 17.3482 23.5928 17.8625 23.2834 18.2575C22.974 18.6525 22.5017 18.8852 22 18.89H17.51C17.1183 19.3075 16.5725 19.5461 16 19.55H10C9.39862 19.558 8.82288 19.3066 8.42004 18.86C8.32699 18.8703 8.23308 18.8703 8.14004 18.86H3.55004C3.06201 18.8416 2.60721 18.6079 2.30805 18.2219C2.00888 17.8359 1.89609 17.3372 2.00004 16.86L2.15004 15.3C2.29596 14.5556 2.94164 14.0141 3.70004 14H8.00004C8.17952 13.99 8.35929 14.0138 8.53004 14.07C8.91369 13.5907 9.49618 13.3142 10.11 13.32H15.89C16.468 13.3178 17.0186 13.5658 17.4 14C17.4697 13.9901 17.5404 13.9901 17.61 14H21.93C22.6884 14.0141 23.3341 14.5556 23.48 15.3ZM17.55 17.36H22.08C22.1106 17.3011 22.1143 17.2318 22.09 17.17V16.97L21.99 15.55L21.93 15.47H17.4C16.9773 15.4715 16.5738 15.2934 16.29 14.98C16.1908 14.8613 16.0447 14.7919 15.89 14.79H10.11C9.94251 14.7921 9.78474 14.8692 9.68004 15C9.39458 15.3388 8.97311 15.5331 8.53004 15.53C8.34861 15.5308 8.16869 15.4969 8.00004 15.43H3.75004C3.69004 15.43 3.69004 15.45 3.69004 15.51L3.59004 16.93V17.13C3.56266 17.1903 3.56266 17.2596 3.59004 17.32H8.18004C8.28648 17.3102 8.3936 17.3102 8.50004 17.32C8.90643 17.3275 9.291 17.5053 9.56004 17.81C9.67037 17.9391 9.83026 18.0154 10 18.02H16.04C16.2101 18.0167 16.3705 17.9401 16.48 17.81C16.7612 17.5215 17.1472 17.3592 17.55 17.36Z" fill="black"/>
<path fill-rule="evenodd" clip-rule="evenodd" d="M21.97 10.26C21.97 11.475 20.9851 12.46 19.77 12.46C19.1848 12.4626 18.6227 12.232 18.2079 11.8192C17.7932 11.4063 17.56 10.8452 17.56 10.26V9.41997C17.56 8.92932 17.7549 8.45877 18.1019 8.11182C18.4488 7.76488 18.9194 7.56997 19.41 7.56997H20.12C21.1418 7.56997 21.97 8.39824 21.97 9.41997V10.26ZM19.1625 9.21248C19.0969 9.27812 19.06 9.36714 19.06 9.45997V10.3C19.1026 10.657 19.4055 10.9259 19.765 10.9259C20.1246 10.9259 20.4274 10.657 20.47 10.3V9.45997C20.47 9.26667 20.3133 9.10997 20.12 9.10997H19.41C19.3172 9.10997 19.2282 9.14685 19.1625 9.21248Z" fill="black"/>
<path fill-rule="evenodd" clip-rule="evenodd" d="M7.42214 11.8192C7.0074 12.232 6.44524 12.4626 5.86004 12.46C5.27656 12.46 4.71698 12.2282 4.3044 11.8156C3.89182 11.403 3.66004 10.8434 3.66004 10.26V9.41997C3.66004 8.39824 4.48831 7.56997 5.51004 7.56997H6.22004C7.24176 7.56997 8.07004 8.39824 8.07004 9.41997V10.26C8.07004 10.8452 7.83689 11.4063 7.42214 11.8192ZM5.51004 9.10997C5.31674 9.10997 5.16004 9.26667 5.16004 9.45997V10.3C5.20264 10.657 5.50545 10.9259 5.86504 10.9259C6.22463 10.9259 6.52744 10.657 6.57004 10.3V9.45997C6.57004 9.26667 6.41334 9.10997 6.22004 9.10997H5.51004Z" fill="black"/>
</svg>
