<svg width="24" height="24" viewBox="0 0 24 24" fill="none" xmlns="http://www.w3.org/2000/svg">
<path fill-rule="evenodd" clip-rule="evenodd" d="M6 2H18C20.2091 2 22 3.79086 22 6V18C22 20.2091 20.2091 22 18 22H6C3.79086 22 2 20.2091 2 18V6C2 3.79086 3.79086 2 6 2ZM19.7678 19.7678C20.2366 19.2989 20.5 18.663 20.5 18V6C20.5 5.33696 20.2366 4.70107 19.7678 4.23223C19.2989 3.76339 18.663 3.5 18 3.5H6C4.61929 3.5 3.5 4.61929 3.5 6V18C3.5 18.663 3.76339 19.2989 4.23223 19.7678C4.70107 20.2366 5.33696 20.5 6 20.5H18C18.663 20.5 19.2989 20.2366 19.7678 19.7678Z" fill="black"/>
<path d="M16.24 11.25H7.76C7.34579 11.25 7.01 11.5858 7.01 12C7.01 12.4142 7.34579 12.75 7.76 12.75H16.24C16.6542 12.75 16.99 12.4142 16.99 12C16.99 11.5858 16.6542 11.25 16.24 11.25Z" fill="black"/>
</svg>
