<svg width="24" height="24" viewBox="0 0 24 24" fill="none" xmlns="http://www.w3.org/2000/svg">
<path fill-rule="evenodd" clip-rule="evenodd" d="M16.29 2H11C9.04488 2.00903 7.38279 3.43006 7.06999 5.36C5.15499 5.61895 3.72244 7.24761 3.70999 9.18V17.35C3.70732 18.5841 4.19638 19.7684 5.069 20.641C5.94162 21.5136 7.12592 22.0027 8.35999 22H13.36C15.2483 22.0007 16.8659 20.6485 17.2 18.79C19.0275 18.3828 20.328 16.7623 20.33 14.89V6C20.33 4.93217 19.9031 3.90864 19.1443 3.15734C18.3855 2.40603 17.3578 1.98932 16.29 2ZM10.18 6.88H15.57C15.9842 6.88 16.32 7.21579 16.32 7.63C16.32 8.04422 15.9842 8.38 15.57 8.38H10.18C9.76577 8.38 9.42999 8.04422 9.42999 7.63C9.42999 7.21579 9.76577 6.88 10.18 6.88ZM8.31999 20.67H13.32C14.4527 20.6713 15.4558 19.9391 15.8 18.86H11C8.79085 18.86 6.99999 17.0691 6.99999 14.86V6.68C5.83436 6.94891 5.00646 7.98378 4.99999 9.18V17.35C5.01091 19.179 6.49094 20.6591 8.31999 20.67ZM9.42999 14.07C9.42999 13.6558 9.76577 13.32 10.18 13.32H14C14.4142 13.32 14.75 13.6558 14.75 14.07C14.75 14.4842 14.4142 14.82 14 14.82H10.18C9.76577 14.82 9.42999 14.4842 9.42999 14.07ZM10.18 11.6H17.11C17.5242 11.6 17.86 11.2642 17.86 10.85C17.86 10.4358 17.5242 10.1 17.11 10.1H10.18C9.76577 10.1 9.42999 10.4358 9.42999 10.85C9.42999 11.2642 9.76577 11.6 10.18 11.6Z" fill="#D8DADC"/>
</svg>
