<svg width="22" height="22" viewBox="0 0 22 22" fill="none" xmlns="http://www.w3.org/2000/svg">
<path d="M11.4695 3.6861L12.1662 2.98944C12.4186 2.71855 12.4112 2.29643 12.1494 2.03462C11.8876 1.77281 11.4654 1.76536 11.1945 2.01777L9.36121 3.8511C9.09313 4.11952 9.09313 4.55435 9.36121 4.82277L11.1945 6.6561C11.463 6.92419 11.8978 6.92419 12.1662 6.6561C12.4343 6.38769 12.4343 5.95285 12.1662 5.68444L11.5612 5.07944C14.648 5.46179 17.0536 7.93928 17.3449 11.036C17.6362 14.1326 15.7348 17.0153 12.7735 17.9666C9.81221 18.9179 6.58777 17.6819 5.02111 14.9949C3.45445 12.3079 3.96712 8.89295 6.25371 6.78444C6.4753 6.52096 6.46784 6.13421 6.23626 5.87947C6.00468 5.62473 5.62039 5.58056 5.33705 5.7761C2.54871 8.34442 1.93925 12.5142 3.87585 15.7731C5.81245 19.0321 9.76625 20.4901 13.3551 19.2689C16.9439 18.0476 19.1876 14.4805 18.7344 10.7168C18.2812 6.95305 15.2548 4.02054 11.4787 3.6861H11.4695Z" fill="#5865F2"/>
</svg>
