<svg width="99" height="22" viewBox="0 0 99 22" fill="none" xmlns="http://www.w3.org/2000/svg">
<path fill-rule="evenodd" clip-rule="evenodd" d="M0.0412992 7.33865C0.0874568 15.5394 0.0541395 15.1849 0.946983 16.985C2.17253 19.4561 4.57701 21.3339 7.18093 21.8532C8.32631 22.0817 10.4151 22.0248 11.4639 21.7366C13.7949 21.0962 16.0316 19.2192 17.1263 16.985C18.018 15.1654 18 15.3493 18 8.07741V1.59914L17.7108 1.07857C17.5081 0.713701 17.2671 0.480137 16.9054 0.297704C16.3934 0.039499 16.3481 0.0374167 11.2869 0.0374167C5.39767 0.0374167 5.48188 0.0261954 4.1521 0.986251C3.98864 1.10425 3.90905 1.08562 3.68787 0.877856C3.16024 0.382153 2.33842 0.11932 1.13346 0.0609003L0 0.00595093L0.0412992 7.33865ZM14.2403 1.44933C13.3328 1.79592 12.4054 2.7879 11.4196 4.46624C10.2447 6.46617 10.6226 6.33429 5.93999 6.37813C3.82449 6.39792 2.09352 6.37767 2.09352 6.33313C2.09352 6.22555 2.59825 5.40859 3.86047 3.47333C4.95634 1.79291 5.2135 1.559 6.22735 1.32011C6.46704 1.26366 8.51105 1.21496 10.7698 1.21195L14.8765 1.20628L14.2403 1.44933ZM12.7741 9.3188C12.7294 13.9202 12.7259 13.9796 12.4553 14.5706C11.3837 16.911 8.21467 17.4955 6.40561 15.6865C6.15562 15.4365 5.825 14.9757 5.67079 14.6624C5.3972 14.1065 5.38968 14.0152 5.35648 10.8249L5.32247 7.55683L7.49662 7.55614C10.8465 7.55521 11.1036 7.42622 12.5111 5.04072C12.6332 4.83399 12.7523 4.66475 12.7762 4.66475C12.7999 4.66475 12.799 6.75908 12.7741 9.3188Z" fill="white"/>
<path d="M30.08 11.376C30.08 10.7973 29.912 10.3773 29.576 10.116C29.2587 9.836 28.82 9.696 28.26 9.696C27.8867 9.696 27.5133 9.74267 27.14 9.836C26.7853 9.92933 26.4773 10.0693 26.216 10.256V19.972C26.0293 20.028 25.7307 20.084 25.32 20.14C24.928 20.196 24.5173 20.224 24.088 20.224C23.6773 20.224 23.304 20.196 22.968 20.14C22.6507 20.084 22.38 19.972 22.156 19.804C21.932 19.636 21.7547 19.412 21.624 19.132C21.512 18.8333 21.456 18.4507 21.456 17.984V9.584C21.456 9.08 21.5587 8.66933 21.764 8.352C21.988 8.03467 22.2867 7.74533 22.66 7.484C23.2947 7.036 24.088 6.672 25.04 6.392C26.0107 6.112 27.084 5.972 28.26 5.972C30.3693 5.972 31.9933 6.43867 33.132 7.372C34.2707 8.28667 34.84 9.56533 34.84 11.208V19.972C34.6533 20.028 34.3547 20.084 33.944 20.14C33.552 20.196 33.1413 20.224 32.712 20.224C32.3013 20.224 31.928 20.196 31.592 20.14C31.2747 20.084 31.004 19.972 30.78 19.804C30.556 19.636 30.3787 19.412 30.248 19.132C30.136 18.8333 30.08 18.4507 30.08 17.984V11.376ZM37.6682 2.612C37.6682 1.90267 37.9016 1.30533 38.3682 0.819998C38.8536 0.334666 39.4882 0.0919993 40.2722 0.0919993C41.0562 0.0919993 41.6816 0.334666 42.1482 0.819998C42.6336 1.30533 42.8762 1.90267 42.8762 2.612C42.8762 3.32133 42.6336 3.91867 42.1482 4.404C41.6816 4.88933 41.0562 5.132 40.2722 5.132C39.4882 5.132 38.8536 4.88933 38.3682 4.404C37.9016 3.91867 37.6682 3.32133 37.6682 2.612ZM42.6522 19.972C42.4469 20.0093 42.1389 20.056 41.7282 20.112C41.3362 20.1867 40.9349 20.224 40.5242 20.224C40.1136 20.224 39.7402 20.196 39.4042 20.14C39.0869 20.084 38.8162 19.972 38.5922 19.804C38.3682 19.636 38.1909 19.412 38.0602 19.132C37.9482 18.8333 37.8922 18.4507 37.8922 17.984V6.588C38.0976 6.55067 38.3962 6.504 38.7882 6.448C39.1989 6.37333 39.6096 6.336 40.0202 6.336C40.4309 6.336 40.7949 6.364 41.1122 6.42C41.4482 6.476 41.7282 6.588 41.9522 6.756C42.1762 6.924 42.3442 7.15733 42.4562 7.456C42.5869 7.736 42.6522 8.10933 42.6522 8.576V19.972ZM57.7786 15.828C57.5359 16.0333 57.2186 16.2013 56.8266 16.332C56.4532 16.444 56.0146 16.5 55.5106 16.5C54.8386 16.5 54.2786 16.416 53.8306 16.248C53.4012 16.08 53.1212 15.7907 52.9906 15.38C52.4679 13.7373 52.0386 12.412 51.7026 11.404C51.3666 10.3773 51.1052 9.48133 50.9186 8.716H50.7786C50.7226 9.81733 50.6759 10.8253 50.6386 11.74C50.6199 12.636 50.6012 13.5133 50.5826 14.372C50.5826 15.2307 50.5639 16.0987 50.5266 16.976C50.5079 17.8533 50.4706 18.824 50.4146 19.888C50.1719 19.9813 49.8546 20.056 49.4626 20.112C49.0706 20.1867 48.6786 20.224 48.2866 20.224C47.4652 20.224 46.8212 20.0933 46.3546 19.832C45.9066 19.5707 45.6826 19.0947 45.6826 18.404L46.4946 4.124C46.6439 3.88133 46.9706 3.62 47.4746 3.34C47.9786 3.06 48.6879 2.92 49.6026 2.92C50.5919 2.92 51.3666 3.07867 51.9266 3.396C52.4866 3.69467 52.8972 4.18933 53.1586 4.88C53.3266 5.328 53.5039 5.84133 53.6906 6.42C53.8959 6.99867 54.0919 7.596 54.2786 8.212C54.4839 8.828 54.6799 9.444 54.8666 10.06C55.0532 10.6573 55.2212 11.1987 55.3706 11.684H55.5106C55.9586 10.116 56.4066 8.604 56.8546 7.148C57.3026 5.67333 57.7132 4.44133 58.0866 3.452C58.3666 3.30267 58.7212 3.18133 59.1506 3.088C59.5986 2.976 60.0932 2.92 60.6346 2.92C61.5492 2.92 62.2959 3.06 62.8746 3.34C63.4532 3.60133 63.7892 3.984 63.8826 4.488C63.9572 4.86133 64.0319 5.44 64.1066 6.224C64.1999 6.98933 64.2932 7.85733 64.3866 8.828C64.4799 9.79867 64.5732 10.8253 64.6666 11.908C64.7599 12.9907 64.8439 14.036 64.9186 15.044C65.0119 16.0333 65.0866 16.948 65.1426 17.788C65.1986 18.6093 65.2359 19.244 65.2546 19.692C64.9372 19.8787 64.6012 20.0093 64.2466 20.084C63.9106 20.1773 63.4719 20.224 62.9306 20.224C62.2212 20.224 61.6239 20.1027 61.1386 19.86C60.6532 19.6173 60.3919 19.1413 60.3546 18.432C60.2426 16.3973 60.1679 14.568 60.1306 12.944C60.1119 11.32 60.0746 9.95733 60.0186 8.856H59.8786C59.6919 9.584 59.4212 10.4987 59.0666 11.6C58.7119 12.7013 58.2826 14.1107 57.7786 15.828ZM75.0817 20.448C73.9804 20.448 72.9537 20.2987 72.0017 20C71.0684 19.6827 70.247 19.216 69.5377 18.6C68.847 17.984 68.2964 17.2093 67.8857 16.276C67.4937 15.3427 67.2977 14.2507 67.2977 13C67.2977 11.768 67.4937 10.7133 67.8857 9.836C68.2964 8.94 68.8284 8.212 69.4817 7.652C70.135 7.07333 70.8817 6.65333 71.7217 6.392C72.5617 6.112 73.4204 5.972 74.2977 5.972C75.287 5.972 76.183 6.12133 76.9857 6.42C77.807 6.71867 78.507 7.12933 79.0857 7.652C79.683 8.17467 80.1404 8.8 80.4577 9.528C80.7937 10.256 80.9617 11.0493 80.9617 11.908C80.9617 12.5427 80.7844 13.028 80.4297 13.364C80.075 13.7 79.5804 13.9147 78.9457 14.008L72.0297 15.044C72.235 15.66 72.655 16.1267 73.2897 16.444C73.9244 16.7427 74.6524 16.892 75.4737 16.892C76.239 16.892 76.9577 16.7987 77.6297 16.612C78.3204 16.4067 78.8804 16.1733 79.3097 15.912C79.6084 16.0987 79.8604 16.36 80.0657 16.696C80.271 17.032 80.3737 17.3867 80.3737 17.76C80.3737 18.6 79.9817 19.2253 79.1977 19.636C78.6004 19.9533 77.9284 20.168 77.1817 20.28C76.435 20.392 75.735 20.448 75.0817 20.448ZM74.2977 9.444C73.8497 9.444 73.4577 9.51867 73.1217 9.668C72.8044 9.81733 72.543 10.0133 72.3377 10.256C72.1324 10.48 71.9737 10.7413 71.8617 11.04C71.7684 11.32 71.7124 11.6093 71.6937 11.908L76.4817 11.124C76.4257 10.7507 76.2204 10.3773 75.8657 10.004C75.511 9.63067 74.9884 9.444 74.2977 9.444ZM82.6649 13.196C82.6649 11.964 82.8515 10.9 83.2249 10.004C83.5982 9.08933 84.1115 8.33333 84.7649 7.736C85.4369 7.13867 86.2115 6.7 87.0889 6.42C87.9849 6.12133 88.9462 5.972 89.9729 5.972C90.3462 5.972 90.7102 6.00933 91.0649 6.084C91.4195 6.14 91.7089 6.21467 91.9329 6.308V1.772C92.1195 1.716 92.4182 1.66 92.8289 1.604C93.2395 1.52933 93.6595 1.492 94.0889 1.492C94.4995 1.492 94.8635 1.52 95.1809 1.576C95.5169 1.632 95.7969 1.744 96.0209 1.912C96.2449 2.08 96.4129 2.31333 96.5249 2.612C96.6369 2.892 96.6929 3.26533 96.6929 3.732V17.004C96.6929 17.8813 96.2822 18.5813 95.4609 19.104C94.9195 19.4587 94.2195 19.7667 93.3609 20.028C92.5022 20.308 91.5129 20.448 90.3929 20.448C89.1795 20.448 88.0875 20.28 87.1169 19.944C86.1649 19.608 85.3529 19.1227 84.6809 18.488C84.0275 17.8533 83.5235 17.0973 83.1689 16.22C82.8329 15.324 82.6649 14.316 82.6649 13.196ZM90.6169 9.696C89.6089 9.696 88.8342 9.98533 88.2929 10.564C87.7515 11.1427 87.4809 12.02 87.4809 13.196C87.4809 14.3533 87.7329 15.2307 88.2369 15.828C88.7409 16.4067 89.4689 16.696 90.4209 16.696C90.7569 16.696 91.0555 16.6493 91.3169 16.556C91.5969 16.444 91.8115 16.3227 91.9609 16.192V10.032C91.5875 9.808 91.1395 9.696 90.6169 9.696Z" fill="white"/>
</svg>
