<svg width="18" height="18" viewBox="0 0 18 18" fill="none" xmlns="http://www.w3.org/2000/svg">
<path fill-rule="evenodd" clip-rule="evenodd" d="M5.75226 1.49939H12.2548C14.7973 1.49939 16.4998 3.28439 16.4998 5.93939V12.0676C16.4998 14.7151 14.7973 16.4994 12.2548 16.4994H5.75226C3.20976 16.4994 1.49976 14.7151 1.49976 12.0676V5.93939C1.49976 3.28439 3.20976 1.49939 5.75226 1.49939ZM11.2573 11.2494C11.5123 10.9951 11.5123 10.5826 11.2573 10.3276L9.92226 8.99264L11.2573 7.65689C11.5123 7.40264 11.5123 6.98264 11.2573 6.72764C11.0023 6.47189 10.5898 6.47189 10.3273 6.72764L8.99976 8.06189L7.66476 6.72764C7.40226 6.47189 6.98976 6.47189 6.73476 6.72764C6.47976 6.98264 6.47976 7.40264 6.73476 7.65689L8.06976 8.99264L6.73476 10.3201C6.47976 10.5826 6.47976 10.9951 6.73476 11.2494C6.86226 11.3769 7.03476 11.4451 7.19976 11.4451C7.37226 11.4451 7.53726 11.3769 7.66476 11.2494L8.99976 9.92264L10.3348 11.2494C10.4623 11.3851 10.6273 11.4451 10.7923 11.4451C10.9648 11.4451 11.1298 11.3769 11.2573 11.2494Z" fill="#D80E0C"/>
</svg>
