<svg width="15" height="15" viewBox="0 0 15 15" fill="none" xmlns="http://www.w3.org/2000/svg">
<path fill-rule="evenodd" clip-rule="evenodd" d="M4.79375 1.24994H10.2125C12.3313 1.24994 13.75 2.73744 13.75 4.94994V10.0568C13.75 12.2624 12.3313 13.7499 10.2125 13.7499H4.79375C2.675 13.7499 1.25 12.2624 1.25 10.0568V4.94994C1.25 2.73744 2.675 1.24994 4.79375 1.24994ZM7.14375 9.36869L10.1125 6.39994C10.325 6.18744 10.325 5.84369 10.1125 5.62494C9.9 5.41244 9.55 5.41244 9.3375 5.62494L6.75625 8.20619L5.6625 7.11244C5.45 6.89994 5.1 6.89994 4.8875 7.11244C4.675 7.32494 4.675 7.66869 4.8875 7.88744L6.375 9.36869C6.48125 9.47494 6.61875 9.52494 6.75625 9.52494C6.9 9.52494 7.0375 9.47494 7.14375 9.36869Z" fill="#25BE22"/>
</svg>
