<svg width="18" height="18" viewBox="0 0 18 18" fill="none" xmlns="http://www.w3.org/2000/svg">
<path d="M7.875 15.75H3C3 13.1051 4.95578 10.9171 7.5 10.5532M12.3732 12.159C11.8484 11.5746 10.9732 11.4174 10.3156 11.9525C9.65803 12.4876 9.56545 13.3822 10.0819 14.0151C10.3734 14.3724 11.0661 14.9987 11.614 15.4765C11.8739 15.7031 12.0039 15.8163 12.161 15.8627C12.295 15.9022 12.4514 15.9022 12.5854 15.8627C12.7426 15.8163 12.8725 15.7031 13.1324 15.4765C13.6803 14.9987 14.373 14.3724 14.6646 14.0151C15.181 13.3822 15.0997 12.482 14.4308 11.9525C13.7619 11.423 12.898 11.5746 12.3732 12.159ZM11.25 5.25C11.25 6.90685 9.90685 8.25 8.25 8.25C6.59315 8.25 5.25 6.90685 5.25 5.25C5.25 3.59315 6.59315 2.25 8.25 2.25C9.90685 2.25 11.25 3.59315 11.25 5.25Z" stroke="#0EA5E9" stroke-width="2" stroke-linecap="round" stroke-linejoin="round"/>
</svg>
