<svg width="18" height="18" viewBox="0 0 18 18" fill="none" xmlns="http://www.w3.org/2000/svg">
<path fill-rule="evenodd" clip-rule="evenodd" d="M5.7525 1.50006H12.255C14.7975 1.50006 16.5 3.28431 16.5 5.93931V12.0668C16.5 14.7151 14.7975 16.5001 12.255 16.5001H5.7525C3.21 16.5001 1.5 14.7151 1.5 12.0668V5.93931C1.5 3.28431 3.21 1.50006 5.7525 1.50006ZM11.685 11.8576C11.8725 11.8576 12.06 11.7601 12.165 11.5801C12.33 11.3168 12.24 10.9718 11.97 10.8076L9.3 9.21756V5.75181C9.3 5.44506 9.0525 5.18931 8.7375 5.18931C8.43 5.18931 8.175 5.44506 8.175 5.75181V9.54006C8.175 9.73506 8.28 9.92256 8.4525 10.0201L11.3925 11.7751C11.4825 11.8351 11.5875 11.8576 11.685 11.8576Z" fill="#F4CE36"/>
</svg>
